<?xml version="1.0" standalone="no"?>
<!DOCTYPE svg PUBLIC "-//W3C//DTD SVG 20010904//EN"
 "http://www.w3.org/TR/2001/REC-SVG-20010904/DTD/svg10.dtd">
<svg version="1.0" xmlns="http://www.w3.org/2000/svg"
 width="477.000000pt" height="477.000000pt" viewBox="0 0 477.000000 477.000000"
 preserveAspectRatio="xMidYMid meet">
<metadata>
Created by potrace 1.11, written by Peter Selinger 2001-2013
</metadata>
<g transform="translate(0.000000,477.000000) scale(0.100000,-0.100000)"
fill="#000000" stroke="none">
<path d="M2327 4734 c-1 -1 -51 -4 -112 -8 -60 -3 -119 -8 -130 -10 -11 -2
-42 -7 -68 -10 -27 -4 -59 -9 -70 -12 -12 -2 -35 -7 -52 -10 -160 -28 -436
-127 -600 -214 -558 -297 -970 -794 -1150 -1387 -19 -62 -37 -123 -39 -135 -2
-13 -9 -43 -15 -68 -5 -25 -13 -67 -17 -95 -3 -27 -8 -61 -10 -75 -12 -90 -18
-183 -18 -305 0 -236 24 -415 81 -620 14 -49 26 -94 27 -100 1 -5 10 -27 19
-48 9 -21 16 -41 15 -45 -1 -7 11 -35 53 -129 10 -23 19 -46 19 -51 0 -5 7
-15 15 -22 8 -7 15 -19 15 -26 0 -7 20 -48 45 -90 25 -42 42 -81 38 -86 -3 -7
-1 -8 5 -4 7 4 12 1 12 -8 0 -9 4 -16 8 -16 8 0 47 -61 45 -70 -1 -3 5 -9 13
-13 8 -4 14 -12 14 -17 0 -5 14 -24 30 -42 17 -18 30 -36 30 -40 0 -4 14 -22
30 -40 17 -18 28 -39 25 -46 -3 -7 0 -10 6 -6 6 3 19 -3 30 -15 11 -12 17 -21
13 -21 -4 0 4 -9 17 -21 13 -12 23 -25 22 -30 -2 -5 1 -8 6 -6 11 3 77 -65 73
-75 -1 -5 4 -7 11 -5 6 1 11 -4 9 -11 -1 -8 1 -11 6 -8 10 6 78 -54 75 -66 -2
-4 3 -7 10 -5 6 1 12 -6 12 -15 0 -9 4 -20 9 -25 5 -4 6 -3 2 4 -18 32 25 8
79 -42 11 -11 24 -20 27 -20 4 0 18 -10 32 -23 15 -12 31 -22 36 -22 6 0 10
-4 10 -10 0 -5 6 -10 13 -10 7 0 22 -8 33 -18 10 -9 40 -28 67 -42 26 -14 47
-29 47 -33 0 -5 5 -5 10 -2 6 3 12 0 15 -7 3 -8 15 -15 28 -15 12 -1 23 -7 25
-13 2 -5 9 -10 15 -10 13 0 89 -38 97 -49 3 -3 12 -6 20 -6 8 0 14 -6 12 -14
-2 -11 0 -12 10 -4 10 8 18 8 32 -3 11 -8 26 -14 34 -14 8 0 28 -6 45 -14 58
-25 93 -37 115 -39 12 -1 22 -5 22 -10 0 -4 5 -5 10 -2 6 3 10 1 10 -6 0 -7 3
-10 6 -6 4 3 14 -2 23 -11 9 -10 13 -13 9 -8 -13 16 -9 29 5 18 7 -6 29 -12
49 -14 20 -1 35 -5 32 -9 -2 -4 6 -7 19 -7 39 0 112 -13 115 -20 1 -4 20 -7
42 -5 22 1 38 -2 35 -6 -3 -5 3 -12 13 -16 27 -13 43 -14 36 -4 -3 5 -9 7 -14
4 -4 -3 -10 2 -13 10 -4 10 -1 12 10 8 16 -6 48 -10 96 -12 19 -1 26 -5 21
-13 -5 -8 -3 -8 7 -2 16 10 129 13 123 3 -2 -4 2 -10 8 -12 10 -4 9 -8 -2 -16
-10 -8 -11 -11 -2 -11 7 0 17 11 24 25 6 13 15 22 20 19 4 -3 6 -10 2 -15 -3
-5 0 -8 8 -7 8 2 12 -5 10 -17 -2 -16 -1 -17 7 -5 7 9 6 19 -1 27 -6 8 -7 17
-3 21 4 4 10 1 12 -5 3 -7 9 -13 14 -13 6 0 8 4 5 8 -3 5 1 9 9 9 9 0 14 -7
13 -15 -2 -8 4 -17 12 -19 13 -4 13 -3 0 6 -11 8 -12 11 -2 11 7 0 11 4 8 8
-2 4 5 9 16 9 12 1 22 -6 25 -18 3 -10 9 -19 15 -19 5 0 4 9 -2 20 -6 11 -9
20 -8 21 2 0 30 2 63 4 33 3 70 7 83 9 12 3 22 2 22 -2 0 -4 9 -13 20 -19 14
-9 21 -10 26 -1 4 6 3 9 -2 6 -5 -3 -16 1 -23 10 -13 14 -12 15 7 10 12 -4 22
-2 22 4 0 6 7 8 15 4 8 -3 15 -2 15 2 0 16 40 7 46 -10 3 -10 10 -18 16 -18 6
0 6 6 -2 15 -15 19 -13 22 22 29 22 4 26 1 22 -12 -4 -11 -1 -10 8 3 15 24 44
26 59 5 8 -11 9 -9 3 10 -6 22 -5 23 10 11 14 -12 16 -12 10 2 -4 11 0 15 12
13 10 -2 22 -14 26 -27 6 -18 7 -16 3 9 -3 18 -1 31 4 27 5 -3 30 4 57 15 26
11 48 19 49 18 1 -2 7 -12 14 -23 11 -18 12 -18 7 7 -5 23 -3 26 11 21 11 -4
14 -3 9 5 -5 8 -2 10 8 6 9 -3 16 -1 16 5 0 6 9 11 19 11 11 0 23 5 26 11 4 6
13 8 21 5 7 -3 16 -1 19 4 3 5 14 7 25 5 14 -3 17 1 13 13 -3 9 -3 14 2 10 4
-4 14 -3 22 3 7 6 13 8 13 5 0 -4 13 2 29 13 16 12 39 22 51 24 13 2 29 12 36
22 8 10 14 15 14 11 0 -5 7 -3 15 4 8 7 15 9 15 4 0 -5 5 -2 10 7 6 11 18 15
35 11 14 -2 25 0 25 7 0 5 -8 8 -17 5 -10 -4 -3 3 15 15 39 25 39 25 39 6 0
-9 -6 -14 -14 -11 -7 3 -13 1 -13 -5 0 -6 8 -9 18 -7 9 2 16 10 15 16 -2 7 1
12 7 12 5 0 7 7 4 15 -5 11 -2 13 10 9 9 -4 16 -3 14 2 -2 5 1 10 5 11 5 1 17
12 28 24 10 12 19 17 19 10 0 -7 5 -9 10 -6 6 4 8 10 5 15 -7 11 50 42 59 33
3 -4 6 -1 6 6 0 7 7 19 15 27 8 9 15 13 15 10 0 -3 21 15 48 39 44 42 82 58
82 34 0 -5 -5 -7 -12 -3 -6 4 -8 3 -5 -3 4 -6 0 -14 -9 -17 -12 -5 -15 -2 -10
11 5 13 4 15 -4 7 -6 -6 -8 -18 -4 -27 5 -14 8 -14 27 3 17 16 23 17 36 7 14
-11 14 -10 2 5 -7 10 -10 18 -5 18 4 0 0 6 -10 13 -16 12 -15 16 23 54 23 22
41 37 41 33 0 -4 9 -10 20 -13 11 -3 17 -1 14 4 -8 13 14 39 29 35 7 -1 8 -1
4 2 -5 2 0 13 10 25 10 11 12 17 6 13 -17 -10 -16 4 2 28 17 23 47 15 39 -11
-5 -15 -4 -15 5 -3 7 11 6 19 -5 32 -15 15 -13 16 20 14 30 -3 34 -1 25 10 -7
9 -7 14 -1 14 15 0 33 -26 24 -35 -4 -5 -2 -5 5 -1 15 9 8 28 -17 43 -16 11
-20 9 -25 -7 -7 -23 -20 -26 -31 -7 -4 6 -3 9 1 4 5 -4 26 18 48 48 22 32 43
52 50 48 6 -4 8 0 4 10 -4 10 1 22 13 30 11 8 18 16 15 19 -3 3 4 13 15 23 11
10 20 24 20 32 0 7 5 13 11 13 6 0 8 -7 5 -16 -3 -8 -2 -12 4 -9 6 3 10 2 10
-3 0 -6 8 -13 18 -17 13 -5 14 -4 5 6 -10 10 -9 15 5 26 15 13 15 13 -5 3 -16
-7 -23 -8 -23 0 0 6 10 14 22 19 l22 8 -22 5 c-12 4 -20 2 -17 -2 3 -5 1 -11
-5 -15 -5 -3 -10 0 -10 7 1 16 24 48 35 48 4 0 2 -7 -5 -15 -11 -13 -10 -14 4
-9 19 7 20 15 4 33 -10 11 -10 13 0 7 7 -4 12 -1 12 8 0 16 33 39 43 30 3 -3
16 1 29 10 12 9 17 16 11 16 -7 0 -15 -4 -18 -10 -3 -5 -11 -10 -17 -10 -6 0
-4 8 5 18 19 21 22 42 6 42 -5 0 -7 -5 -4 -11 4 -6 -3 -20 -15 -31 -26 -25
-36 -19 -12 8 19 19 22 26 22 44 0 6 16 8 38 5 28 -3 33 -2 19 6 -9 6 -22 7
-27 4 -6 -3 -10 1 -10 9 0 8 5 18 10 21 6 4 8 11 5 16 -4 5 1 9 10 9 9 0 13 5
10 10 -3 5 -1 10 4 10 6 0 11 5 11 11 0 5 -5 7 -10 4 -6 -4 -5 5 2 19 6 15 18
25 26 24 8 -2 21 7 28 18 13 19 13 22 -1 28 -9 3 -14 2 -10 -3 8 -13 -5 -42
-17 -35 -5 3 -4 11 3 20 6 8 9 14 6 14 -3 0 -1 13 4 29 7 19 20 32 37 36 23 6
25 8 9 16 -25 15 -21 32 4 18 13 -6 19 -7 15 -1 -3 6 -3 12 1 15 5 2 3 2 -4 1
-21 -5 -24 12 -8 50 17 41 21 43 49 18 20 -17 20 -17 0 9 -10 15 -22 25 -27
22 -4 -2 -7 3 -7 11 0 21 17 20 28 0 8 -15 10 -15 15 0 4 10 3 15 -3 11 -6 -3
-10 -2 -10 4 0 5 6 12 13 15 6 3 1 3 -11 0 -21 -5 -22 -3 -14 13 5 10 7 24 5
31 -3 6 0 12 7 12 6 0 8 5 5 10 -3 6 -1 10 4 10 6 0 11 -7 11 -15 0 -8 -4 -15
-8 -15 -5 0 -9 -7 -9 -15 0 -22 5 -19 22 14 14 28 14 30 -5 36 -11 4 -18 11
-14 16 3 5 8 21 10 36 3 15 8 31 12 37 3 6 8 27 9 46 6 65 5 64 20 44 12 -16
11 -20 -4 -26 -16 -7 -15 -7 2 -5 12 2 18 9 16 18 -2 8 -4 21 -5 30 0 9 -5 16
-11 15 -5 -2 -7 -1 -4 1 4 2 5 17 3 33 -2 17 1 30 7 30 6 0 8 -4 5 -8 -2 -4 5
-9 16 -9 21 -2 21 -2 0 13 -19 13 -21 23 -18 65 3 28 10 57 17 65 10 12 9 13
-7 8 -11 -3 -15 -2 -8 3 5 4 9 26 8 48 -2 29 4 47 19 65 14 15 15 19 4 11 -9
-8 -20 -11 -24 -7 -4 3 2 13 13 20 16 12 17 17 6 28 -11 11 -12 10 -6 -7 4
-12 3 -17 -2 -12 -5 5 -9 22 -10 39 -1 21 1 26 7 17 6 -9 9 -10 9 -2 0 6 -4
14 -9 18 -5 3 -8 23 -6 45 2 22 -1 42 -6 46 -6 3 -4 15 5 30 11 16 12 22 4 19
-9 -4 -14 8 -15 35 -2 22 2 40 7 40 6 0 10 5 10 11 0 5 -4 8 -9 4 -12 -7 -23
28 -15 49 4 9 1 16 -6 16 -9 0 -9 4 1 17 10 11 10 14 2 9 -8 -4 -13 -2 -13 5
0 6 8 9 18 7 12 -4 18 1 18 13 0 14 -3 15 -13 7 -16 -13 -23 -7 -27 23 -1 13
-5 31 -8 39 -14 34 -16 60 -5 60 7 0 4 5 -5 11 -10 5 -18 17 -18 25 0 8 4 13
8 10 4 -2 14 0 22 6 13 8 12 9 -2 5 -10 -4 -22 3 -32 19 -9 13 -14 24 -12 24
3 0 -1 18 -9 41 -8 23 -12 45 -9 50 3 5 1 9 -5 9 -5 0 -13 15 -16 33 -4 17
-12 38 -17 45 -6 6 -7 12 -3 12 4 0 2 7 -5 15 -7 8 -9 23 -6 32 4 10 4 14 0
10 -9 -9 -45 64 -38 75 3 5 0 8 -6 8 -6 0 -8 5 -5 10 3 6 2 10 -3 10 -12 0
-33 55 -28 73 1 7 1 9 -1 4 -3 -4 -9 -4 -14 -1 -6 3 -5 11 2 20 9 12 9 13 -3
9 -9 -4 -19 6 -28 30 -7 19 -17 35 -22 35 -4 0 -8 7 -8 15 0 8 -5 15 -11 15
-6 0 -9 9 -6 20 3 11 0 18 -7 17 -6 -1 -10 6 -10 16 1 10 -1 16 -4 13 -7 -8
-32 14 -32 28 0 6 5 4 10 -4 5 -8 10 -10 10 -4 0 7 -11 19 -25 28 -14 9 -25
22 -25 29 0 7 -9 18 -20 25 -11 7 -20 19 -20 27 0 8 -9 23 -20 32 -11 10 -20
20 -20 24 0 4 -16 24 -35 45 -20 21 -33 44 -30 52 3 7 0 10 -6 7 -14 -9 -41
15 -35 31 3 8 2 13 -2 12 -12 -4 -52 22 -52 33 0 15 -26 39 -34 32 -3 -4 -6 1
-6 10 0 10 -3 17 -7 17 -16 0 -83 67 -75 75 4 4 1 5 -6 1 -7 -4 -15 -1 -18 8
-3 9 -10 16 -15 16 -15 0 -48 33 -43 42 3 5 1 7 -4 6 -8 -3 -137 84 -152 102
-3 4 -31 21 -63 39 -31 18 -55 37 -51 42 3 5 2 9 -3 8 -24 -4 -43 2 -37 13 5
7 3 8 -5 4 -7 -5 -20 -1 -29 7 -9 8 -32 20 -49 28 -18 8 -33 17 -33 21 0 5 -3
7 -7 7 -21 -3 -33 2 -27 13 4 6 3 8 -3 5 -13 -8 -76 16 -68 26 3 4 2 5 -1 3
-6 -5 -78 21 -159 54 -38 16 -40 17 -97 31 -27 6 -48 15 -48 20 0 6 -3 8 -8 5
-4 -2 -43 4 -87 15 -44 10 -91 21 -105 23 -56 10 -112 18 -138 21 -65 8 -340
23 -345 19z m1738 -3954 c-30 -31 -40 -34 -29 -6 3 9 10 13 15 10 5 -3 12 2
15 10 3 9 11 16 17 16 6 0 -2 -13 -18 -30z"/>
<path d="M4470 3506 c0 -2 8 -10 18 -17 15 -13 16 -12 3 4 -13 16 -21 21 -21
13z"/>
<path d="M4561 3266 c-9 -11 -9 -16 1 -22 7 -4 10 -4 6 1 -4 4 -3 14 3 22 6 7
9 13 6 13 -2 0 -10 -6 -16 -14z"/>
<path d="M4587 3180 c7 -28 29 -44 39 -29 4 8 3 9 -4 5 -8 -4 -16 3 -22 18
-11 31 -20 35 -13 6z"/>
<path d="M4620 3056 c0 -2 7 -7 16 -10 8 -3 12 -2 9 4 -6 10 -25 14 -25 6z"/>
<path d="M4655 2969 c-3 -4 2 -6 10 -5 21 3 28 13 10 13 -9 0 -18 -4 -20 -8z"/>
<path d="M4690 2910 c0 -5 5 -10 11 -10 5 0 7 5 4 10 -3 6 -8 10 -11 10 -2 0
-4 -4 -4 -10z"/>
<path d="M4686 2855 c-3 -8 -1 -15 4 -15 6 0 10 7 10 15 0 8 -2 15 -4 15 -2 0
-6 -7 -10 -15z"/>
<path d="M4725 2670 c-4 -6 -10 -8 -14 -6 -4 3 -8 -1 -8 -8 0 -7 6 -13 14 -13
7 0 11 3 8 5 -3 3 0 11 6 19 6 7 9 13 6 13 -3 0 -9 -5 -12 -10z"/>
<path d="M4731 2564 c0 -11 3 -14 6 -6 3 7 2 16 -1 19 -3 4 -6 -2 -5 -13z"/>
<path d="M4716 2532 c-2 -4 -1 -14 4 -22 7 -11 9 -9 7 8 -1 24 -3 26 -11 14z"/>
<path d="M4730 2430 c0 -5 5 -10 11 -10 5 0 7 5 4 10 -3 6 -8 10 -11 10 -2 0
-4 -4 -4 -10z"/>
<path d="M4717 2329 c7 -7 15 -10 18 -7 3 3 -2 9 -12 12 -14 6 -15 5 -6 -5z"/>
<path d="M4715 2288 c3 -11 7 -23 11 -27 4 -3 4 2 1 11 -3 9 -1 18 6 21 6 2 4
6 -5 10 -13 4 -16 1 -13 -15z"/>
<path d="M4735 2249 c-4 -6 -5 -12 -2 -15 2 -3 7 2 10 11 7 17 1 20 -8 4z"/>
<path d="M4706 2184 c-8 -22 -4 -25 11 -9 7 8 9 16 4 19 -5 3 -12 -1 -15 -10z"/>
<path d="M4705 2141 c-3 -5 -2 -12 3 -15 5 -3 9 1 9 9 0 17 -3 19 -12 6z"/>
<path d="M4698 2074 c-4 -3 0 -13 8 -21 8 -8 12 -18 10 -22 -3 -4 1 -8 9 -8
11 0 12 4 4 14 -9 10 -8 18 2 31 13 15 12 16 -3 4 -11 -9 -17 -9 -20 -2 -2 6
-6 8 -10 4z"/>
<path d="M4700 1970 c-9 -6 -10 -10 -3 -10 6 0 15 5 18 10 8 12 4 12 -15 0z"/>
<path d="M4676 1945 c4 -8 -1 -27 -10 -43 l-17 -27 19 22 c11 12 22 20 25 17
3 -3 3 4 0 15 -3 12 -9 24 -14 27 -5 3 -6 -2 -3 -11z"/>
<path d="M4713 1915 c0 -8 4 -12 9 -9 5 3 6 10 3 15 -9 13 -12 11 -12 -6z"/>
<path d="M4690 1890 c0 -5 5 -10 11 -10 5 0 7 5 4 10 -3 6 -8 10 -11 10 -2 0
-4 -4 -4 -10z"/>
<path d="M4661 1871 c-17 -11 -6 -31 17 -30 15 1 15 2 -1 6 -9 2 -15 9 -11 14
3 5 10 6 16 3 7 -4 8 -2 4 4 -8 14 -7 14 -25 3z"/>
<path d="M4660 1769 c0 -5 5 -7 10 -4 6 3 10 8 10 11 0 2 -4 4 -10 4 -5 0 -10
-5 -10 -11z"/>
<path d="M4606 1675 c4 -8 11 -15 16 -15 6 0 5 6 -2 15 -7 8 -14 15 -16 15 -2
0 -1 -7 2 -15z"/>
<path d="M4586 1643 c-6 -14 -5 -15 5 -6 7 7 10 15 7 18 -3 3 -9 -2 -12 -12z"/>
<path d="M4610 1641 c0 -6 4 -13 10 -16 6 -3 7 1 4 9 -7 18 -14 21 -14 7z"/>
<path d="M4604 1572 c4 -3 14 -7 22 -8 9 -1 13 0 10 4 -4 3 -14 7 -22 8 -9 1
-13 0 -10 -4z"/>
<path d="M4545 1539 c-4 -6 -5 -13 -2 -16 7 -7 27 6 27 18 0 12 -17 12 -25 -2z"/>
<path d="M4610 1516 c0 -2 7 -7 16 -10 8 -3 12 -2 9 4 -6 10 -25 14 -25 6z"/>
<path d="M4587 1469 c7 -7 15 -10 18 -7 3 3 -2 9 -12 12 -14 6 -15 5 -6 -5z"/>
<path d="M4550 1456 c0 -2 7 -7 16 -10 8 -3 12 -2 9 4 -6 10 -25 14 -25 6z"/>
<path d="M4500 1429 c0 -5 5 -7 10 -4 6 3 10 8 10 11 0 2 -4 4 -10 4 -5 0 -10
-5 -10 -11z"/>
<path d="M4522 1420 c-9 -15 -9 -21 1 -26 6 -4 9 -4 5 1 -4 4 -3 14 4 22 6 7
9 15 7 18 -3 2 -10 -4 -17 -15z"/>
<path d="M4550 1430 c0 -5 5 -10 11 -10 5 0 7 5 4 10 -3 6 -8 10 -11 10 -2 0
-4 -4 -4 -10z"/>
<path d="M4470 1355 c-11 -13 -10 -14 4 -9 9 3 16 10 16 15 0 13 -6 11 -20 -6z"/>
<path d="M4486 1272 c-3 -5 1 -9 9 -9 8 0 12 4 9 9 -3 4 -7 8 -9 8 -2 0 -6 -4
-9 -8z"/>
<path d="M4460 1236 c0 -2 8 -10 18 -17 15 -13 16 -12 3 4 -13 16 -21 21 -21
13z"/>
<path d="M4416 1205 c4 -8 8 -15 10 -15 2 0 4 7 4 15 0 8 -4 15 -10 15 -5 0
-7 -7 -4 -15z"/>
<path d="M4390 1190 c0 -5 5 -10 10 -10 6 0 10 5 10 10 0 6 -4 10 -10 10 -5 0
-10 -4 -10 -10z"/>
<path d="M4395 1159 c-4 -6 -5 -12 -2 -15 2 -3 7 2 10 11 7 17 1 20 -8 4z"/>
<path d="M4416 1137 c3 -10 9 -15 12 -12 3 3 0 11 -7 18 -10 9 -11 8 -5 -6z"/>
<path d="M4294 1064 c-10 -8 -14 -13 -8 -10 8 4 11 -3 10 -19 -1 -27 -6 -31
-23 -14 -8 8 -13 8 -18 0 -3 -6 -3 -10 2 -9 4 1 18 -3 29 -10 18 -9 21 -9 21
6 0 46 4 63 13 57 6 -3 10 -1 10 4 0 15 -13 14 -36 -5z"/>
<path d="M4335 1049 c-11 -16 -1 -19 13 -3 7 8 8 14 3 14 -5 0 -13 -5 -16 -11z"/>
<path d="M4260 992 c0 -5 11 -14 25 -20 14 -6 25 -10 25 -8 0 2 -11 11 -25 20
-14 9 -25 13 -25 8z"/>
<path d="M4227 976 c-3 -8 -2 -18 3 -21 13 -8 24 15 12 27 -6 6 -11 4 -15 -6z"/>
<path d="M4255 950 c-3 -6 1 -7 9 -4 18 7 21 14 7 14 -6 0 -13 -4 -16 -10z"/>
<path d="M4204 939 c-3 -6 -1 -16 5 -22 9 -9 10 -7 5 8 -7 18 -6 18 9 6 9 -7
17 -9 17 -3 0 14 -28 23 -36 11z"/>
<path d="M4259 923 c-13 -16 -12 -17 4 -4 16 13 21 21 13 21 -2 0 -10 -8 -17
-17z"/>
<path d="M4296 923 c-6 -14 -5 -15 5 -6 7 7 10 15 7 18 -3 3 -9 -2 -12 -12z"/>
<path d="M4119 848 c-4 -19 -5 -68 -1 -63 7 6 12 65 6 65 -2 0 -4 -1 -5 -2z"/>
<path d="M4131 774 c0 -11 3 -14 6 -6 3 7 2 16 -1 19 -3 4 -6 -2 -5 -13z"/>
<path d="M4070 750 c0 -5 5 -10 10 -10 6 0 10 5 10 10 0 6 -4 10 -10 10 -5 0
-10 -4 -10 -10z"/>
<path d="M3985 706 c-17 -17 -29 -30 -26 -29 2 2 11 -3 19 -10 13 -9 14 -9 8
1 -5 8 -1 12 11 13 16 0 16 1 -1 8 -14 5 -16 10 -8 15 16 10 32 -1 33 -22 0
-12 3 -10 10 6 5 14 13 20 20 16 8 -4 9 -3 5 5 -6 9 -11 9 -21 1 -8 -7 -15 -7
-19 -1 -3 5 -1 11 6 13 7 3 8 7 3 10 -6 3 -24 -8 -40 -26z"/>
<path d="M4095 710 c3 -5 8 -10 11 -10 2 0 4 5 4 10 0 6 -5 10 -11 10 -5 0 -7
-4 -4 -10z"/>
<path d="M4003 653 c-7 -2 -13 -9 -13 -15 0 -7 5 -7 13 1 8 6 18 7 22 3 5 -4
5 -1 1 6 -4 6 -8 12 -9 11 -1 0 -8 -3 -14 -6z"/>
<path d="M3873 608 c-5 -7 -10 -24 -10 -38 -1 -14 1 -19 4 -12 3 6 10 9 16 5
7 -4 6 1 -2 10 -8 10 -11 21 -7 24 4 4 11 1 16 -7 5 -8 11 -12 14 -10 2 3 -1
13 -9 23 -10 13 -14 14 -22 5z"/>
<path d="M3950 610 c0 -5 5 -10 11 -10 5 0 7 5 4 10 -3 6 -8 10 -11 10 -2 0
-4 -4 -4 -10z"/>
<path d="M3825 567 c-11 -12 -21 -25 -21 -29 -1 -5 -2 -13 -3 -19 -1 -8 -5 -8
-14 -1 -29 24 -71 -37 -44 -65 5 -4 8 -3 7 2 -5 25 1 56 10 50 6 -4 7 -11 4
-17 -4 -7 -2 -8 4 -4 6 4 8 14 5 23 -5 12 -3 14 8 7 24 -15 38 -13 32 4 -5 11
-3 13 8 7 11 -7 11 -5 -1 10 -14 16 -13 17 6 11 18 -5 22 -2 22 19 0 14 -1 25
-2 24 0 0 -10 -10 -21 -22z"/>
<path d="M3905 550 c-3 -6 1 -7 9 -4 18 7 21 14 7 14 -6 0 -13 -4 -16 -10z"/>
<path d="M3850 509 c0 -5 5 -7 10 -4 6 3 10 8 10 11 0 2 -4 4 -10 4 -5 0 -10
-5 -10 -11z"/>
<path d="M3690 465 c-7 -8 -17 -12 -22 -9 -5 3 -4 -3 3 -14 15 -23 19 -22 24
5 6 29 6 29 15 8 7 -16 9 -17 9 -3 1 24 -14 31 -29 13z"/>
<path d="M3775 471 c-3 -5 -2 -12 3 -15 5 -3 9 1 9 9 0 17 -3 19 -12 6z"/>
<path d="M3654 421 c4 -5 1 -11 -6 -13 -8 -3 -7 -6 3 -10 10 -4 15 1 16 13 1
10 -3 19 -8 19 -6 0 -8 -4 -5 -9z"/>
<path d="M3633 373 c1 -17 4 -19 14 -11 15 12 18 22 4 14 -5 -4 -11 0 -14 6
-3 7 -4 3 -4 -9z"/>
<path d="M3531 375 c-1 -21 14 -32 34 -24 19 7 19 8 -2 8 -12 1 -24 7 -26 14
-3 6 -6 8 -6 2z"/>
<path d="M3496 344 c-8 -21 -8 -21 10 -28 15 -6 15 -4 3 11 -12 15 -12 16 4
10 9 -3 17 -2 17 2 0 16 -28 20 -34 5z"/>
<path d="M3575 330 c3 -5 8 -10 11 -10 2 0 4 5 4 10 0 6 -5 10 -11 10 -5 0 -7
-4 -4 -10z"/>
<path d="M3458 319 c-10 -5 -18 -6 -18 -2 0 10 -20 -19 -20 -29 0 -5 5 -8 11
-8 5 0 7 5 4 10 -3 6 -2 10 2 10 5 0 18 7 29 15 22 17 17 19 -8 4z"/>
<path d="M1334 295 c1 -8 6 -18 11 -22 4 -4 5 -3 2 4 -4 6 -2 13 5 15 8 3 6 6
-4 10 -10 4 -15 2 -14 -7z"/>
<path d="M3385 290 c-10 -11 -16 -22 -13 -25 3 -3 13 6 22 20 20 30 16 32 -9
5z"/>
<path d="M3473 302 c-7 -4 -9 -13 -4 -21 6 -9 10 -7 14 8 3 12 4 21 4 21 -1 0
-7 -4 -14 -8z"/>
<path d="M3337 266 c-4 -10 -1 -13 8 -9 8 3 12 9 9 14 -7 12 -11 11 -17 -5z"/>
<path d="M3396 263 c-6 -14 -5 -15 5 -6 7 7 10 15 7 18 -3 3 -9 -2 -12 -12z"/>
<path d="M3275 240 c-3 -6 -1 -18 5 -27 9 -15 10 -14 4 7 -6 22 -5 23 10 11 9
-7 16 -9 16 -3 0 14 -28 23 -35 12z"/>
<path d="M3355 240 c3 -5 8 -10 11 -10 2 0 4 5 4 10 0 6 -5 10 -11 10 -5 0 -7
-4 -4 -10z"/>
<path d="M3233 227 c-16 -9 -20 -16 -13 -27 8 -13 10 -12 10 3 0 9 5 17 11 17
5 0 7 -6 3 -12 -4 -7 -3 -9 1 -5 7 6 17 38 12 37 -1 -1 -12 -6 -24 -13z"/>
<path d="M3320 236 c0 -2 7 -7 16 -10 8 -3 12 -2 9 4 -6 10 -25 14 -25 6z"/>
<path d="M1507 209 c7 -7 15 -10 18 -7 3 3 -2 9 -12 12 -14 6 -15 5 -6 -5z"/>
<path d="M3181 201 c-9 -6 -10 -11 -2 -15 6 -4 11 -1 11 6 0 9 3 9 10 -2 6 -9
10 -10 10 -3 0 17 -14 23 -29 14z"/>
<path d="M3255 190 c-3 -5 -1 -10 4 -10 6 0 11 5 11 10 0 6 -2 10 -4 10 -3 0
-8 -4 -11 -10z"/>
<path d="M3330 196 c0 -2 7 -7 16 -10 8 -3 12 -2 9 4 -6 10 -25 14 -25 6z"/>
<path d="M1616 177 c3 -8 11 -14 19 -14 20 0 19 4 -5 17 -15 8 -18 8 -14 -3z"/>
<path d="M1516 172 c-3 -5 1 -9 9 -9 8 0 12 4 9 9 -3 4 -7 8 -9 8 -2 0 -6 -4
-9 -8z"/>
<path d="M3085 171 c-3 -5 -2 -12 3 -15 5 -3 9 1 9 9 0 17 -3 19 -12 6z"/>
<path d="M3221 166 c-9 -11 -9 -16 1 -22 7 -4 10 -4 6 1 -4 4 -3 14 3 22 6 7
9 13 6 13 -2 0 -10 -6 -16 -14z"/>
<path d="M3110 161 c0 -5 7 -11 14 -14 10 -4 13 -1 9 9 -6 15 -23 19 -23 5z"/>
<path d="M3040 150 c-12 -8 -9 -9 12 -8 15 1 24 6 22 10 -7 10 -16 10 -34 -2z"/>
<path d="M1716 137 c3 -10 9 -15 12 -12 3 3 0 11 -7 18 -10 9 -11 8 -5 -6z"/>
<path d="M3081 131 c-10 -7 -7 -9 12 -8 14 1 23 5 20 10 -6 9 -15 9 -32 -2z"/>
<path d="M2915 120 c-3 -5 -1 -10 4 -10 6 0 11 5 11 10 0 6 -2 10 -4 10 -3 0
-8 -4 -11 -10z"/>
<path d="M1828 113 c6 -2 9 -10 6 -15 -4 -7 -2 -8 5 -4 13 9 5 26 -12 25 -9 0
-8 -2 1 -6z"/>
<path d="M2975 113 c3 -3 -3 -16 -12 -27 -14 -15 -14 -18 -2 -8 9 6 18 9 22 6
3 -3 4 1 3 10 -1 8 -5 18 -9 21 -4 3 -5 2 -2 -2z"/>
<path d="M1870 99 c0 -5 5 -7 10 -4 6 3 10 8 10 11 0 2 -4 4 -10 4 -5 0 -10
-5 -10 -11z"/>
<path d="M2855 86 c0 -13 3 -22 8 -19 4 2 7 13 7 24 0 10 -3 19 -7 19 -5 0 -8
-11 -8 -24z"/>
<path d="M2760 86 c0 -8 4 -17 9 -20 5 -4 7 3 4 14 -6 23 -13 26 -13 6z"/>
<path d="M2780 90 c0 -5 7 -7 15 -4 8 4 15 8 15 10 0 2 -7 4 -15 4 -8 0 -15
-4 -15 -10z"/>
<path d="M2900 89 c0 -5 5 -7 10 -4 6 3 10 8 10 11 0 2 -4 4 -10 4 -5 0 -10
-5 -10 -11z"/>
<path d="M2930 89 c0 -5 5 -7 10 -4 6 3 10 8 10 11 0 2 -4 4 -10 4 -5 0 -10
-5 -10 -11z"/>
<path d="M2663 83 c-7 -3 -13 -10 -13 -16 0 -8 4 -7 12 1 9 9 16 8 30 -5 10
-9 20 -14 22 -12 7 7 -39 36 -51 32z"/>
<path d="M1986 68 c3 -5 10 -6 15 -3 13 9 11 12 -6 12 -8 0 -12 -4 -9 -9z"/>
<path d="M2552 64 c10 -10 20 -16 22 -13 3 3 -5 11 -17 18 -21 13 -21 12 -5
-5z"/>
<path d="M2590 70 c0 -5 5 -10 11 -10 8 0 8 -4 0 -14 -8 -10 -9 -16 -1 -21 6
-4 9 -1 8 7 -2 7 3 12 10 10 10 -2 10 2 0 18 -14 21 -28 27 -28 10z"/>
<path d="M2799 78 c-6 -21 -5 -37 2 -32 5 3 7 9 4 14 -3 4 1 11 7 13 10 4 10
6 1 6 -7 1 -13 0 -14 -1z"/>
<path d="M2009 53 c-13 -16 -12 -17 4 -4 16 13 21 21 13 21 -2 0 -10 -8 -17
-17z"/>
<path d="M2193 52 c2 -12 6 -24 10 -28 3 -4 4 4 2 16 -6 30 -16 40 -12 12z"/>
<path d="M2284 58 c3 -15 26 -23 26 -8 0 6 -4 9 -9 6 -5 -4 -12 -1 -14 4 -3 6
-4 5 -3 -2z"/>
<path d="M2135 50 c3 -5 8 -10 11 -10 2 0 4 5 4 10 0 6 -5 10 -11 10 -5 0 -7
-4 -4 -10z"/>
<path d="M2226 52 c-3 -5 1 -9 9 -9 8 0 15 4 15 9 0 10 -17 10 -24 0z"/>
<path d="M2659 43 c-12 -16 -12 -17 2 -6 9 7 20 9 24 5 5 -4 5 -1 1 6 -9 16
-11 15 -27 -5z"/>
<path d="M2440 30 c-9 -6 -10 -10 -3 -10 6 0 15 5 18 10 8 12 4 12 -15 0z"/>
<path d="M2500 30 c-9 -6 -10 -10 -3 -10 6 0 15 5 18 10 8 12 4 12 -15 0z"/>
</g>
</svg>
